{"title":"Guge: The Lost Kingdom of Tibet 2006 HDRip XviD titler","uid":8889741,"size":603242746,"categoryP":"video","categoryS":"movies","magnet":"?xt=urn:btih:ad927d47fd45545bcd92b3a1d56cd4aca7b7f807&amp;dn=Guge%3A+The+Lost+Kingdom+of+Tibet+2006+HDRip+XviD+titler&amp;tr=udp%3A%2F%2Ftracker.openbittorrent.com%3A80&amp;tr=udp%3A%2F%2Fopen.demonii.com%3A1337&amp;tr=udp%3A%2F%2Ftracker.coppersurfer.tk%3A6969&amp;tr=udp%3A%2F%2Fexodus.desync.com%3A6969","seeders":1,"leechers":0,"uploader":"movieZ.freak","files":4,"time":1378553411,"description":"SOURCE: HD 720p\n\n\nDiscovery Channel - Guge: The Lost Kingdom of Tibet\n\n &lt;a href=&quot;\nhttp://en.wikipedia.org/wiki/Guge&quot; rel=&quot;nofollow&quot; target=&quot;_NEW&quot;&gt;\nhttp://en.wikipedia.org/wiki/Guge&lt;/a&gt;\n\n &lt;a href=&quot;\nhttp://docuwiki.net/index.php?title=Guge._The_Lost_Kingdom_of_Tibet&quot; rel=&quot;nofollow&quot; target=&quot;_NEW&quot;&gt;\nhttp://docuwiki.net/index.php?title=Guge._The_Lost_Kingdom_of_Tibet&lt;/a&gt;\n\n\n- SAMPLE: Yes\n\n- SUBTITLE: English\n\n- LANGUAGE: English\n\n\n- GENRE: Documentary\n\n- DURATION: 52m 2s\n\n\n\nSCREENSHOTS:\n------------------- &lt;a href=&quot;\nhttp://someimage.com/pmhP&quot; rel=&quot;nofollow&quot; target=&quot;_NEW&quot;&gt;\nhttp://someimage.com/pmhP&lt;/a&gt;\n\n\n\nMovie Info:\n----------------\nThis journey throughout the remote stretches of western Tibet offers a rare glimpse at the ancient ruins of Guge. Once a flourishing kingdom controlling much of the trade between China and India, the population of Guge mysteriously vanished in the year 1630. American archaeologist John Bellezza joins Tibetan historian Tsering Gyalpo in hopes of discovering the true fate of this mysterious land.\n\n\nGeneral\n--------------\nFormat : AVI\nFormat/Info : Audio Video Interleave\nFile size : 550 MiB\nDuration : 52mn 2s\nOverall bit rate : 1478 Kbps\nWriting application : VirtualDubMod 1.5.4.1\nWriting library : VirtualDubMod build 2178\n\n\nVideo\n------------\nFormat : MPEG-4 Visual\nFormat profile : Advanced Simple@L5\nFormat settings, BVOP : 1\nFormat settings, QPel : No\nFormat settings, GMC : No warppoints\nFormat settings, Matrix : Custom\nCodec ID : XVID\nCodec ID/Hint : XviD\nDuration : 52mn 2s\nBit rate : 1342 Kbps\nWidth : 640 pixels\nHeight : 368 pixels\nDisplay aspect ratio : 1.739\nFrame rate : 25.000 fps\nColor space : YUV\nChroma subsampling : 4:2:0\nBit depth : 8 bits\nScan type : Progressive\nCompression mode : Lossy\nBits/(Pixel*Frame) : 0.228\nStream size : 500 MiB (91%)\nWriting library : XviD 64\n\n\nAudio\n-------------\nFormat : MPEG Audio\nFormat version : Version 1\nFormat profile : Layer 3\nMode : Joint stereo\nMode extension : MS Stereo\nCodec ID : 55\nCodec ID/Hint : MP3\nDuration : 52mn 2s\nBit rate mode : Constant\nBit rate : 128 Kbps\nChannel(s) : 2 channels\nSampling rate : 48.0 KHz\nCompression mode : Lossy\nStream size : 47.6 MiB (9%)\nAlignment : Aligned on interleaves\nInterleave, duration : 80 ms (2.00 video frames)\nInterleave, preload duration : 504 ms\nWriting library : LAME3.99.5\nLanguage : English","torrent":{"xt":"urn:btih:ad927d47fd45545bcd92b3a1d56cd4aca7b7f807","amp;dn":"Guge%3A+The+Lost+Kingdom+of+Tibet+2006+HDRip+XviD+titler","amp;tr":["udp%3A%2F%2Ftracker.openbittorrent.com%3A80","udp%3A%2F%2Fopen.demonii.com%3A1337","udp%3A%2F%2Ftracker.coppersurfer.tk%3A6969","udp%3A%2F%2Fexodus.desync.com%3A6969"],"infoHash":"ad927d47fd45545bcd92b3a1d56cd4aca7b7f807","infoHashBuffer":{"type":"Buffer","data":[173,146,125,71,253,69,84,91,205,146,179,161,213,108,212,172,167,183,248,7]},"announce":[],"urlList":[]}}